<?xml version="1.0" encoding="UTF-8" standalone="no"?>
  <svg
    width="545"
    height="260"
    viewBox="0 0 545 260"
    fill="none"
    xmlns="http://www.w3.org/2000/svg"
  >
    <g clipPath="url(#clip0_519_299)">
      <path
        d="M0.270508 259.916V74.934H306.977C349.73 74.934 385.261 105.798 392.532 146.46C394.11 155.319 401.681 161.844 410.675 161.844H410.936C458.936 161.844 497.846 200.753 497.846 248.754V259.926"
        fill="#F4EFED"
      />
      <path d="M181.013 225.518V109.013H203.57V194.625" fill="#0A0777" />
      <path
        d="M413.366 204.152C413.366 196.958 419.204 191.12 426.397 191.12C433.591 191.12 439.429 196.958 439.429 204.152H413.366Z"
        fill="#FFCCEF"
      />
      <path
        d="M293.443 134.668V109.013H301.546V128.53L293.443 134.668Z"
        fill="white"
      />
      <path
        d="M432.1 204.152L452.489 259.916H400.403L420.734 204.152"
        fill="#F4EFED"
      />
      <path
        d="M225.121 158.465H76.2695V259.916H225.121V158.465Z"
        fill="#FFCCEF"
      />
      <path
        d="M203.571 168.369C210.58 168.369 216.273 174.062 216.273 181.071V194.625H190.878V181.071C190.878 174.062 196.571 168.369 203.58 168.369H203.571Z"
        stroke="white"
        strokeWidth="0.501207"
        strokeMiterlimit="10"
      />
      <path
        d="M168.321 168.369C175.33 168.369 181.023 174.062 181.023 181.071V194.625H155.628V181.071C155.628 174.062 161.321 168.369 168.33 168.369H168.321Z"
        stroke="white"
        strokeWidth="0.501207"
        strokeMiterlimit="10"
      />
      <path
        d="M133.061 168.369C140.07 168.369 145.763 174.062 145.763 181.071V194.625H120.369V181.071C120.369 174.062 126.061 168.369 133.071 168.369H133.061Z"
        stroke="white"
        strokeWidth="0.501207"
        strokeMiterlimit="10"
      />
      <path
        d="M97.811 168.369C104.82 168.369 110.513 174.062 110.513 181.071V194.625H85.1187V181.071C85.1187 174.062 90.8113 168.369 97.8206 168.369H97.811Z"
        stroke="white"
        strokeWidth="0.501207"
        strokeMiterlimit="10"
      />
      <path d="M76.26 95.6813H0.35791V259.916H76.26V95.6813Z" fill="white" />
      <path
        d="M293.443 159.559L261.717 174.691V259.916H293.443V159.559Z"
        fill="#0A0777"
      />
      <path
        d="M361.145 134.659L327.299 109.013L293.443 134.659V259.916H361.145V134.659Z"
        fill="#FFCCEF"
      />
      <path
        d="M327.115 142.772C337.861 142.772 346.574 151.494 346.574 162.231V194.422H307.646V162.231C307.646 151.485 316.368 142.772 327.105 142.772H327.115Z"
        stroke="#0A0777"
        strokeWidth="0.501207"
        strokeMiterlimit="10"
      />
      <path
        d="M327.115 194.431V142.772"
        stroke="#0A0777"
        strokeWidth="0.501207"
        strokeMiterlimit="10"
      />
      <path
        d="M346.574 171.738H307.646"
        stroke="#0A0777"
        strokeWidth="0.501207"
        strokeMiterlimit="10"
      />
      <path
        d="M203.57 168.369C210.579 168.369 216.272 174.062 216.272 181.071V194.625H190.877V181.071C190.877 174.062 196.57 168.369 203.579 168.369H203.57Z"
        stroke="#0A0777"
        strokeWidth="0.501207"
        strokeMiterlimit="10"
      />
      <path
        d="M203.57 194.625V168.369"
        stroke="#0A0777"
        strokeWidth="0.501207"
        strokeMiterlimit="10"
      />
      <path
        d="M216.272 182.272H190.877"
        stroke="#0A0777"
        strokeWidth="0.501207"
        strokeMiterlimit="10"
      />
      <path
        d="M168.32 168.369C175.329 168.369 181.022 174.062 181.022 181.071V194.625H155.627V181.071C155.627 174.062 161.32 168.369 168.329 168.369H168.32Z"
        stroke="#0A0777"
        strokeWidth="0.501207"
        strokeMiterlimit="10"
      />
      <path
        d="M168.32 194.625V168.369"
        stroke="#0A0777"
        strokeWidth="0.501207"
        strokeMiterlimit="10"
      />
      <path
        d="M181.012 182.272H155.618"
        stroke="#0A0777"
        strokeWidth="0.501207"
        strokeMiterlimit="10"
      />
      <path
        d="M133.06 168.369C140.069 168.369 145.762 174.062 145.762 181.071V194.625H120.368V181.071C120.368 174.062 126.06 168.369 133.07 168.369H133.06Z"
        stroke="#0A0777"
        strokeWidth="0.501207"
        strokeMiterlimit="10"
      />
      <path
        d="M133.06 194.625V168.369"
        stroke="#0A0777"
        strokeWidth="0.501207"
        strokeMiterlimit="10"
      />
      <path
        d="M145.762 182.272H120.368"
        stroke="#0A0777"
        strokeWidth="0.501207"
        strokeMiterlimit="10"
      />
      <path
        d="M97.8105 168.369C104.82 168.369 110.512 174.062 110.512 181.071V194.625H85.1182V181.071C85.1182 174.062 90.8108 168.369 97.8202 168.369H97.8105Z"
        stroke="#0A0777"
        strokeWidth="0.501207"
        strokeMiterlimit="10"
      />
      <path
        d="M97.811 194.625V168.369"
        stroke="#0A0777"
        strokeWidth="0.501207"
        strokeMiterlimit="10"
      />
      <path
        d="M110.503 182.272H85.1084"
        stroke="#0A0777"
        strokeWidth="0.501207"
        strokeMiterlimit="10"
      />
      <path
        d="M286.975 185.099H268.929V238.705H286.975V185.099Z"
        stroke="#F4EFED"
        strokeWidth="0.501207"
        strokeMiterlimit="10"
      />
      <path
        d="M277.953 185.099V238.695"
        stroke="#F4EFED"
        strokeWidth="0.501207"
        strokeMiterlimit="10"
      />
      <path
        d="M268.929 211.897H286.975"
        stroke="#F4EFED"
        strokeWidth="0.501207"
        strokeMiterlimit="10"
      />
      <path
        d="M337.948 251.852H293.443V259.916H337.948V251.852Z"
        fill="#0A0777"
      />
      <path
        d="M337.948 243.787H301.546V251.852H337.948V243.787Z"
        fill="#0A0777"
      />
      <path
        d="M337.948 235.723H310.317V243.787H337.948V235.723Z"
        fill="#0A0777"
      />
      <path
        d="M337.948 227.658H318.76V235.723H337.948V227.658Z"
        fill="#0A0777"
      />
      <path
        d="M337.948 219.593H327.192V227.658H337.948V219.593Z"
        fill="#0A0777"
      />
      <path
        d="M380.682 219.593H336.109V259.926H380.682V219.593Z"
        fill="white"
      />
      <path
        d="M336.108 219.593V205.827H327.192V219.593"
        stroke="#0A0777"
        strokeWidth="0.501207"
        strokeMiterlimit="10"
      />
      <path
        d="M345.025 219.593V205.827H336.109V219.593"
        stroke="#0A0777"
        strokeWidth="0.501207"
        strokeMiterlimit="10"
      />
      <path
        d="M353.932 219.593V205.827H345.025V219.593"
        stroke="#0A0777"
        strokeWidth="0.501207"
        strokeMiterlimit="10"
      />
      <path
        d="M362.849 219.593V205.827H353.932V219.593"
        stroke="#0A0777"
        strokeWidth="0.501207"
        strokeMiterlimit="10"
      />
      <path
        d="M371.766 219.593V205.827H362.849V219.593"
        stroke="#0A0777"
        strokeWidth="0.501207"
        strokeMiterlimit="10"
      />
      <path
        d="M380.682 219.593V205.827H371.765V219.593"
        stroke="#0A0777"
        strokeWidth="0.501207"
        strokeMiterlimit="10"
      />
      <path
        d="M212.061 81.8562C209.311 78.8744 207.627 74.8856 207.627 70.5096C207.627 61.2639 215.12 53.7705 224.366 53.7705C233.612 53.7705 240.524 60.7024 241.066 69.4544C242.722 68.4378 244.668 67.8473 246.759 67.8473C252.8 67.8473 257.689 72.7364 257.689 78.7776C257.689 79.7844 257.544 80.7526 257.292 81.6723H260.71C267.913 81.6723 274.274 85.419 277.972 91.0536H197.51C200.734 86.1354 206 82.6501 212.08 81.8466L212.061 81.8562Z"
        stroke="#0A0777"
        strokeWidth="0.501207"
        strokeMiterlimit="10"
      />
      <path
        d="M225.111 203.116H122.401V259.916H225.111V203.116Z"
        fill="#0A0777"
      />
      <path
        d="M245.655 229.991H142.945L122.401 203.116H225.111L245.655 229.991Z"
        fill="white"
      />
      <path
        d="M142.946 229.991H160.063V230.195C160.063 234.909 156.238 238.734 151.524 238.734H151.494C146.78 238.734 142.955 234.909 142.955 230.195V229.991H142.946Z"
        stroke="#FB6E44"
        strokeWidth="0.501207"
        strokeMiterlimit="10"
      />
      <path
        d="M160.062 229.991H177.179V230.195C177.179 234.909 173.355 238.734 168.64 238.734H168.611C163.896 238.734 160.072 234.909 160.072 230.195V229.991H160.062Z"
        stroke="#FB6E44"
        strokeWidth="0.501207"
        strokeMiterlimit="10"
      />
      <path
        d="M177.179 229.991H194.296V230.195C194.296 234.909 190.472 238.734 185.757 238.734H185.728C181.013 238.734 177.189 234.909 177.189 230.195V229.991H177.179Z"
        stroke="#FB6E44"
        strokeWidth="0.501207"
        strokeMiterlimit="10"
      />
      <path
        d="M194.305 229.991H211.422V230.195C211.422 234.909 207.598 238.734 202.883 238.734H202.854C198.139 238.734 194.315 234.909 194.315 230.195V229.991H194.305Z"
        stroke="#FB6E44"
        strokeWidth="0.501207"
        strokeMiterlimit="10"
      />
      <path
        d="M211.422 229.991H228.539V230.195C228.539 234.909 224.714 238.734 220 238.734H219.971C215.256 238.734 211.432 234.909 211.432 230.195V229.991H211.422Z"
        stroke="#FB6E44"
        strokeWidth="0.501207"
        strokeMiterlimit="10"
      />
      <path
        d="M228.539 229.991H245.414V230.301C245.414 234.958 241.638 238.734 236.981 238.734C232.324 238.734 228.549 234.958 228.549 230.301V229.991H228.539Z"
        stroke="#FB6E44"
        strokeWidth="0.501207"
        strokeMiterlimit="10"
      />
      <path
        d="M177.178 229.991L156.644 203.116"
        stroke="#FB6E44"
        strokeWidth="0.501207"
        strokeMiterlimit="10"
      />
      <path
        d="M194.306 229.991L173.762 203.116"
        stroke="#FB6E44"
        strokeWidth="0.501207"
        strokeMiterlimit="10"
      />
      <path
        d="M211.422 229.991L190.878 203.116"
        stroke="#FB6E44"
        strokeWidth="0.501207"
        strokeMiterlimit="10"
      />
      <path
        d="M228.539 229.991L207.995 203.116"
        stroke="#FB6E44"
        strokeWidth="0.501207"
        strokeMiterlimit="10"
      />
      <path
        d="M400.403 259.916V212.197C400.403 200.56 409.842 191.12 421.479 191.12H439.429"
        stroke="#0A0777"
        strokeWidth="0.501207"
        strokeMiterlimit="10"
      />
      <path
        d="M432.061 204.152C432.061 207.279 429.525 209.815 426.398 209.815C423.27 209.815 420.734 207.279 420.734 204.152"
        fill="#FB6E44"
      />
      <path
        d="M366.73 138.88L327.298 109.013L287.866 138.88"
        stroke="#0A0777"
        strokeWidth="0.501207"
        strokeMiterlimit="10"
      />
      <path
        d="M139.528 203.116L160.062 229.991"
        stroke="#FB6E44"
        strokeWidth="0.501207"
        strokeMiterlimit="10"
      />
      <path
        d="M76.2697 107.599H0.35791"
        stroke="#FB6E44"
        strokeWidth="0.501207"
        strokeMiterlimit="10"
      />
      <path
        d="M76.2719 145.586L38.2778 107.591L0.283752 145.586L38.2778 183.58L76.2719 145.586Z"
        stroke="#FB6E44"
        strokeWidth="0.501207"
        strokeMiterlimit="10"
      />
      <path
        d="M76.2636 221.592L38.2695 183.598L0.275452 221.592L38.2695 259.586L76.2636 221.592Z"
        stroke="#FB6E44"
        strokeWidth="0.501207"
        strokeMiterlimit="10"
      />
      <path
        d="M277.953 166.946V109.013H181.014V158.465"
        stroke="#0A0777"
        strokeWidth="0.501207"
        strokeMiterlimit="10"
      />
      <path
        d="M120.205 28.0276V43.576H113.98V95.2069H109.274V100.628C109.274 104.472 112.392 107.589 116.235 107.589H120.195V158.455"
        fill="#F4EFED"
      />
      <path
        d="M120.205 28.0276V43.576H113.98V95.2069H109.274V100.628C109.274 104.472 112.392 107.589 116.235 107.589H120.195V158.455"
        stroke="#0A0777"
        strokeWidth="0.501207"
        strokeMiterlimit="10"
      />
      <path
        d="M148.977 28.0276H112.808V158.475H148.977V28.0276Z"
        fill="#FFCCEF"
      />
      <path
        d="M112.808 107.599H108.703V158.484H112.808V107.599Z"
        fill="#FFCCEF"
      />
      <path
        d="M112.808 28.1631H108.703V43.5759H112.808V28.1631Z"
        fill="#FFCCEF"
      />
      <path
        d="M140.768 28.0277H116.913L128.84 9.60397L140.768 28.0277Z"
        fill="#0A0777"
      />
      <path
        d="M128.84 7.70639C130.968 7.70639 132.693 5.98126 132.693 3.8532C132.693 1.72513 130.968 0 128.84 0C126.712 0 124.987 1.72513 124.987 3.8532C124.987 5.98126 126.712 7.70639 128.84 7.70639Z"
        fill="#FB6E44"
      />
      <path
        d="M116.913 28.0276V158.465"
        stroke="#0A0777"
        strokeWidth="0.501207"
        strokeMiterlimit="10"
      />
      <path
        d="M124.861 28.0276V158.465"
        stroke="#0A0777"
        strokeWidth="0.501207"
        strokeMiterlimit="10"
      />
      <path
        d="M140.768 28.0276V158.465"
        stroke="#0A0777"
        strokeWidth="0.501207"
        strokeMiterlimit="10"
      />
      <path
        d="M132.819 28.0276V158.465"
        stroke="#0A0777"
        strokeWidth="0.501207"
        strokeMiterlimit="10"
      />
      <path
        d="M155.193 43.576H106.563V95.6812H155.193V43.576Z"
        fill="#FFCCEF"
      />
      <path
        d="M153.083 107.599H104.608C100.842 107.599 97.7827 104.54 97.7827 100.774V95.6909H159.908V100.774C159.908 104.54 156.849 107.599 153.083 107.599Z"
        fill="#FFCCEF"
      />
      <path
        d="M107.928 128.269H149.751"
        stroke="#0A0777"
        strokeWidth="0.501207"
        strokeMiterlimit="10"
      />
      <path
        d="M107.928 28.0276H149.751"
        stroke="#0A0777"
        strokeWidth="0.501207"
        strokeMiterlimit="10"
      />
      <path
        d="M106.583 43.576H102.478V95.6812H106.583V43.576Z"
        fill="#FFCCEF"
      />
      <path
        d="M106.583 74.934H102.478V95.6813H106.583V74.934Z"
        fill="#FFCCEF"
      />
      <path
        d="M128.841 87.7135C138.829 87.7135 146.926 79.6166 146.926 69.6286C146.926 59.6407 138.829 51.5438 128.841 51.5438C118.853 51.5438 110.756 59.6407 110.756 69.6286C110.756 79.6166 118.853 87.7135 128.841 87.7135Z"
        fill="#F4EFED"
      />
      <path
        d="M128.841 58.524V69.6286"
        stroke="#0A0777"
        strokeWidth="0.501207"
        strokeMiterlimit="10"
      />
      <path
        d="M137.089 69.6286H128.841"
        stroke="#0A0777"
        strokeWidth="0.501207"
        strokeMiterlimit="10"
      />
      <path
        d="M128.841 72.5524C130.456 72.5524 131.765 71.2433 131.765 69.6286C131.765 68.0138 130.456 66.7048 128.841 66.7048C127.226 66.7048 125.917 68.0138 125.917 69.6286C125.917 71.2433 127.226 72.5524 128.841 72.5524Z"
        fill="#FB6E44"
      />
      <path
        d="M24.2031 32.2293C24.2031 36.6053 25.8877 40.5941 28.6372 43.5759L28.6566 43.5663L73.8687 43.392C74.1204 42.4723 74.2656 41.5041 74.2656 40.4973C74.2656 34.4561 69.3765 29.567 63.3353 29.567C61.2441 29.567 59.2982 30.1575 57.6427 31.1741C57.1005 22.4221 50.188 15.4902 40.9423 15.4902C31.6965 15.4902 24.2031 22.9836 24.2031 32.2293Z"
        stroke="#0A0777"
        strokeWidth="0.501207"
        strokeMiterlimit="10"
      />
      <path
        d="M539.06 221.526C538.015 220.63 537.694 219.167 538.178 217.878C538.566 216.842 538.782 215.716 538.782 214.541C538.782 211.981 537.77 209.656 536.126 207.949C535.205 206.99 535.033 205.566 535.594 204.363C536.035 203.414 536.27 202.344 536.236 201.223C536.131 197.66 533.278 194.702 529.721 194.482C525.674 194.233 522.314 197.44 522.314 201.429C522.314 202.498 522.553 203.509 522.985 204.416C523.551 205.605 523.306 207.028 522.395 207.982C520.77 209.689 519.768 212 519.768 214.541C519.768 215.716 519.984 216.837 520.372 217.878C520.866 219.187 520.506 220.649 519.447 221.565C516.153 224.412 514.106 228.665 514.245 233.392C514.475 241.389 521.058 247.871 529.054 247.986C537.463 248.11 544.319 241.326 544.319 232.946C544.319 228.377 542.282 224.283 539.065 221.526H539.06Z"
        fill="#FFCCEF"
      />
      <path
        d="M529.274 229.072V260"
        stroke="#0A0777"
        strokeWidth="0.501207"
        strokeMiterlimit="10"
      />
    </g>
    <defs>
      <clipPath id="clip0_519_299">
        <rect width="545" height="260" fill="white" />
      </clipPath>
    </defs>
  </svg>